<?xml version="1.0" encoding="utf-8"?>
<!-- Generator: Adobe Illustrator 24.2.0, SVG Export Plug-In . SVG Version: 6.00 Build 0)  -->
<svg version="1.1" id="Layer_1" xmlns="http://www.w3.org/2000/svg" xmlns:xlink="http://www.w3.org/1999/xlink" x="0px" y="0px"
	 viewBox="0 0 1000 1000" style="enable-background:new 0 0 1000 1000;" xml:space="preserve">
<style type="text/css">
	.st0{fill-rule:evenodd;clip-rule:evenodd;fill:#8993BE;}
	.st1{fill-rule:evenodd;clip-rule:evenodd;fill:#232532;}
</style>
<g>
	<ellipse class="st0" cx="500" cy="500" rx="400.5" ry="208.5"/>
	<path class="st1" d="M212,623.4l43.9-222.2h101.5c43.9,2.7,65.8,24.7,65.8,63.1c0,65.8-52.1,104.2-98.8,101.5h-49.4l-11,57.6H212z
		 M286,524.7l13.7-82.3h35.7c19.2,0,32.9,8.2,32.9,24.7c-2.7,46.6-24.7,54.9-49.4,57.6H286L286,524.7z M413,565.8l43.9-222.2H509
		l-11,57.6h49.4c43.9,2.7,60.3,24.7,54.9,52.1l-19.2,112.5h-54.9l19.2-101.5c2.7-13.7,2.7-21.9-16.5-21.9h-41.1l-24.7,123.4H413z
		 M579.6,623.4l43.9-222.2h101.5c43.9,2.7,65.8,24.7,65.8,63.1c0,65.8-52.1,104.2-98.8,101.5h-49.4l-11,57.6H579.6z M653.6,524.7
		l13.7-82.3H703c19.2,0,32.9,8.2,32.9,24.7c-2.7,46.6-24.7,54.9-49.4,57.6H653.6L653.6,524.7z"/>
</g>
</svg>
